<svg width="253" height="253" viewBox="0 0 253 253" fill="none" xmlns="http://www.w3.org/2000/svg">
<path d="M46.6627 215.058L28.9053 15.8125H224.095L206.314 215.026L126.381 237.188L46.6627 215.058Z" fill="#1572B6"/>
<path d="M126.5 220.252L191.094 202.345L206.29 32.1072H126.5V220.252Z" fill="#33A9DC"/>
<path d="M126.5 104.291H158.837L161.066 79.2681H126.5V54.8298H126.587H187.773L187.188 61.3841L181.188 128.73H126.5V104.291Z" fill="white"/>
<path d="M126.65 167.755L126.539 167.787L99.3262 160.434L97.5868 140.945H84.3597H73.0537L76.4771 179.314L126.532 193.213L126.65 193.181V167.755Z" fill="#EBEBEB"/>
<path d="M156.757 127.694L153.816 160.418L126.563 167.771V193.197L176.657 179.314L177.029 175.187L181.274 127.694H156.757Z" fill="white"/>
<path d="M126.587 54.8298V70.0098V79.2048V79.2681H67.638H67.5589L67.0687 73.7732L65.954 61.3841L65.3689 54.8298H126.587Z" fill="#EBEBEB"/>
<path d="M126.5 104.291V119.471V128.666V128.729H99.7058H99.6267L99.1365 123.235L98.0296 110.846L97.4446 104.291H126.5Z" fill="#EBEBEB"/>
</svg>
