<svg width="195" height="195" viewBox="0 0 195 195" fill="none" xmlns="http://www.w3.org/2000/svg">
<path d="M192.974 149.967C186.027 151.734 181.731 150.043 177.877 144.254C169.224 131.29 159.672 118.92 150.455 106.321C149.267 104.691 148.033 103.091 146.494 101.065C135.586 115.781 124.693 129.797 114.471 144.376C110.815 149.586 106.976 151.856 100.151 150.013L141.162 94.9711L102.984 45.2614C109.55 43.9817 114.09 44.6367 118.112 50.5172C126.994 63.4969 136.79 75.852 146.555 88.9231C156.381 75.8977 166.055 63.5274 175.195 50.6696C178.867 45.4594 182.813 43.4789 189.409 45.3985C184.412 52.0254 179.522 58.5457 174.601 65.0203C167.959 73.7496 161.439 82.5856 154.553 91.1321C152.1 94.1789 152.496 96.1594 154.69 99.0387C167.426 115.781 180.009 132.691 192.974 149.967Z" fill="black"/>
<path d="M2.02617 94.057C3.12305 88.5574 3.8543 82.9511 5.37773 77.5582C14.5184 44.9109 51.9949 31.3371 77.741 51.5683C92.823 63.4359 96.5707 80.1632 95.8242 99.0234H10.8164C9.53672 132.859 33.8965 153.288 64.9441 142.868C75.8367 139.212 82.2504 130.68 85.4648 120.016C87.0949 114.669 89.7914 113.831 94.8187 115.355C92.2441 128.7 86.4094 139.852 74.2219 146.829C55.9406 157.28 29.8441 153.898 16.118 139.379C8.01328 130.848 4.57031 120.23 3.04688 108.758C2.81836 106.93 2.34609 105.132 1.98047 103.319C2.01094 100.232 2.02617 97.1445 2.02617 94.057ZM10.9687 91.7871H87.7957C87.293 67.3207 72.0586 49.9382 51.2332 49.7859C28.3816 49.6031 11.959 66.5742 10.9687 91.7871Z" fill="black"/>
</svg>
