<svg width="214" height="214" viewBox="0 0 214 214" fill="none" xmlns="http://www.w3.org/2000/svg">
<path d="M38.7875 164.512L39.9243 162.928L93.5581 61.1839L93.6718 60.1072L70.0315 15.7022C69.5987 14.8902 68.9215 14.2349 68.0958 13.8288C67.2701 13.4228 66.3376 13.2867 65.4302 13.4398C64.5229 13.5929 63.6867 14.0274 63.0398 14.6818C62.393 15.3362 61.9683 16.1775 61.8259 17.0866L38.7875 164.512Z" fill="#FFC24A"/>
<path d="M39.4563 163.309L40.3123 161.637L93.391 60.9499L69.8109 16.371C69.422 15.5957 68.7924 14.9673 68.0164 14.58C67.2404 14.1926 66.3598 14.067 65.5065 14.2222C64.6531 14.3773 63.873 14.8048 63.2831 15.4406C62.6931 16.0763 62.325 16.8861 62.2339 17.7486L39.4563 163.309Z" fill="#FFA712"/>
<path d="M110.905 93.6919L128.507 75.6357L110.899 42.0577C110.511 41.3351 109.935 40.7311 109.231 40.31C108.528 39.8889 107.723 39.6665 106.903 39.6665C106.083 39.6665 105.278 39.8889 104.575 40.31C103.871 40.7311 103.295 41.3351 102.907 42.0577L93.4979 59.9936V61.525L110.905 93.6919Z" fill="#F4BD62"/>
<path d="M110.591 92.9562L127.705 75.4349L110.591 42.7999C110.311 42.0935 109.833 41.4832 109.214 41.0426C108.594 40.602 107.861 40.3499 107.102 40.3166C106.343 40.2834 105.59 40.4705 104.935 40.8554C104.28 41.2402 103.75 41.8064 103.409 42.4856L93.9527 60.7358L93.6719 61.6654L110.591 92.9562Z" fill="#FFA50E"/>
<path d="M38.8009 164.519L39.3158 163.998L41.1817 163.242L109.795 94.8823L110.665 92.5149L93.5515 59.8933L38.8009 164.519Z" fill="#F6820C"/>
<path d="M113.099 198.993L175.212 164.359L157.464 55.1452C157.337 54.3753 157 53.6553 156.49 53.0643C155.981 52.4734 155.318 52.0342 154.575 51.7952C153.832 51.5561 153.038 51.5263 152.279 51.7091C151.521 51.8919 150.827 52.2801 150.275 52.8313L38.7875 164.513L100.533 198.987C102.453 200.058 104.614 200.62 106.813 200.62C109.011 200.62 111.173 200.058 113.092 198.987" fill="#FDE068"/>
<path d="M174.644 164.071L157.043 55.6802C157.012 54.9438 156.763 54.2332 156.328 53.6383C155.893 53.0434 155.291 52.5909 154.598 52.3382C153.906 52.0854 153.154 52.0438 152.438 52.2184C151.722 52.3931 151.074 52.7763 150.576 53.3195L39.4563 164.305L100.52 198.411C102.424 199.474 104.569 200.032 106.749 200.032C108.93 200.032 111.074 199.474 112.979 198.411L174.644 164.071Z" fill="#FCCA3F"/>
<path d="M113.099 197.95C111.179 199.021 109.018 199.584 106.819 199.584C104.621 199.584 102.459 199.021 100.54 197.95L39.2957 163.991L38.7875 164.513L100.533 198.987C102.453 200.058 104.614 200.62 106.813 200.62C109.011 200.62 111.173 200.058 113.092 198.987L175.212 164.359L175.059 163.422L113.099 197.95Z" fill="#EEAB37"/>
</svg>
