<svg width="256" height="256" viewBox="0 0 256 256" fill="none" xmlns="http://www.w3.org/2000/svg">
<path d="M47.216 217.608L29.24 16H226.76L208.76 217.576L127.88 240L47.216 217.608Z" fill="#E44F26"/>
<path d="M128 222.864L193.36 204.744L208.736 32.488H128V222.864Z" fill="#F1662A"/>
<path d="M128 107.256H95.28L93.024 81.936H128V57.208H127.912H66L66.592 63.848L72.664 131.984H128V107.256Z" fill="#EBEBEB"/>
<path d="M128 171.472L127.888 171.504L100.352 164.072L98.5921 144.352H85.2081H73.7681L77.2321 183.168L127.888 197.232L128 197.2V171.472Z" fill="#EBEBEB"/>
<path d="M127.912 107.256V131.984H158.36L155.496 164.056L127.912 171.496V197.224L178.608 183.168L178.976 178.992L184.784 113.896L185.392 107.256H178.728H127.912Z" fill="white"/>
<path d="M127.912 57.208V72.568V81.88V81.936H187.56H187.64L188.136 76.384L189.264 63.848L189.856 57.208H127.912Z" fill="white"/>
</svg>
