<svg width="357" height="357" viewBox="0 0 357 357" fill="none" xmlns="http://www.w3.org/2000/svg">
<path d="M5.58091 252.293H17.0384V207.046L34.7768 246.492C36.8686 251.267 39.733 252.954 45.3529 252.954C50.9729 252.954 53.7285 251.267 55.8203 246.492L73.5587 207.046V252.293H85.0162V207.121C85.0162 202.715 83.2535 200.581 79.6166 199.482C70.9119 196.766 65.0716 199.117 62.4276 204.993L45.021 243.923L28.1667 204.991C25.6315 199.117 19.6824 196.766 10.9778 199.479C7.34081 200.581 5.57812 202.712 5.57812 207.119L5.58091 252.293ZM94.5464 215.461H106.001V240.389C105.895 241.742 106.436 244.921 112.712 245.022C115.913 245.072 137.428 245.022 137.629 245.022V215.338H149.112C149.165 215.338 149.101 255.818 149.101 255.986C149.162 265.971 136.714 268.138 130.974 268.305H94.7947V260.596C94.856 260.596 130.949 260.604 131.039 260.593C138.416 259.815 137.543 256.15 137.54 254.918V251.911H113.189C101.859 251.808 94.6413 246.863 94.5492 241.173C94.5437 240.651 94.7974 215.712 94.5464 215.461Z" fill="#00618A"/>
<path d="M157.945 252.293H190.889C194.746 252.293 198.495 251.487 201.468 250.093C206.424 247.817 208.848 244.732 208.848 240.688V232.315C208.848 229.01 206.095 225.922 200.695 223.87C197.831 222.765 194.303 222.182 190.886 222.182H177.002C172.375 222.182 170.172 220.788 169.622 217.703C169.514 217.335 169.514 217.042 169.514 216.674V211.458C169.514 211.166 169.514 210.87 169.622 210.505C170.172 208.153 171.385 207.492 175.463 207.124L176.564 207.052H209.288V199.415H177.117C172.49 199.415 170.066 199.708 167.862 200.369C161.032 202.5 158.053 205.877 158.053 211.754V218.437C158.053 223.58 163.896 227.986 173.7 229.016C174.804 229.085 175.903 229.163 177.005 229.163H188.906C189.347 229.163 189.787 229.163 190.119 229.233C193.756 229.526 195.296 230.19 196.4 231.509C197.061 232.17 197.279 232.834 197.279 233.565V240.25C197.279 241.056 196.729 242.085 195.628 242.966C194.637 243.848 192.984 244.436 190.78 244.584L189.567 244.657H157.945V252.293ZM280.331 239C280.331 246.857 286.172 251.264 297.958 252.148C299.06 252.221 300.162 252.293 301.263 252.293H331.123V244.657H301.046C294.324 244.657 291.792 242.966 291.792 238.925V199.41H280.334L280.331 239ZM216.161 239.396V212.161C216.161 205.244 221.019 201.047 230.625 199.722C231.618 199.574 232.725 199.502 233.715 199.502H255.467C256.571 199.502 257.564 199.574 258.666 199.722C268.272 201.047 273.133 205.242 273.133 212.161V239.396C273.133 245.014 271.069 248.015 266.314 249.973L277.604 260.161H264.297L255.166 251.917L245.973 252.499H233.715C231.618 252.499 229.412 252.207 226.982 251.543C219.694 249.557 216.161 245.728 216.161 239.396ZM228.527 238.735C228.527 239.104 228.636 239.475 228.748 239.915C229.409 243.081 232.393 244.846 236.917 244.846H247.326L237.765 236.214H251.071L259.408 243.745C260.947 242.922 261.957 241.672 262.311 240.063C262.42 239.695 262.42 239.327 262.42 238.959V212.831C262.42 212.538 262.42 212.167 262.311 211.799C261.648 208.853 258.666 207.163 254.251 207.163H236.914C231.838 207.163 228.525 209.372 228.525 212.831L228.527 238.735Z" fill="#E48E00"/>
<path d="M341.203 186.733C334.16 186.541 328.78 187.196 324.178 189.135C322.87 189.687 320.787 189.701 320.575 191.338C321.292 192.094 321.403 193.218 321.975 194.144C323.074 195.921 324.929 198.302 326.583 199.549C328.387 200.913 330.25 202.374 332.191 203.557C335.636 205.66 339.485 206.859 342.806 208.962C344.762 210.206 346.703 211.768 348.613 213.171C349.559 213.86 350.189 214.939 351.419 215.371V215.173C350.775 214.353 350.607 213.227 350.016 212.368L347.411 209.763C344.865 206.382 341.635 203.418 338.196 200.952C335.457 198.986 329.327 196.328 328.183 193.14L327.983 192.942C329.924 192.721 332.2 192.019 333.99 191.539C337.002 190.73 339.694 190.939 342.804 190.136L347.01 188.931V188.133C345.439 186.521 344.315 184.385 342.603 182.926C338.121 179.108 333.223 175.293 328.183 172.108C325.389 170.345 321.933 169.199 318.968 167.704C317.975 167.199 316.224 166.939 315.563 166.1C314.004 164.117 313.159 161.604 311.957 159.292C309.447 154.453 306.975 149.165 304.747 144.069C303.23 140.597 302.237 137.172 300.343 134.056C291.248 119.104 281.458 110.079 266.294 101.21C263.067 99.3213 259.182 98.5795 255.079 97.6061L248.469 97.2045C247.128 96.6439 245.728 94.9983 244.464 94.2006C239.438 91.0267 226.553 84.1238 222.832 93.2021C220.484 98.9309 226.346 104.52 228.441 107.424C229.911 109.46 231.796 111.741 232.848 114.031C233.539 115.537 233.657 117.046 234.251 118.638C235.704 122.56 236.973 126.83 238.855 130.453C239.806 132.288 240.858 134.221 242.06 135.861C242.796 136.865 244.063 137.311 244.261 138.865C243.025 140.594 242.952 143.283 242.258 145.472C239.129 155.342 240.308 167.612 244.863 174.916C246.26 177.161 249.551 181.97 254.075 180.123C258.033 178.511 257.152 173.516 258.284 169.106C258.541 168.111 258.382 167.374 258.884 166.705V166.906L262.49 174.116C265.159 178.414 269.892 182.901 273.905 185.933C275.986 187.503 277.626 190.222 280.315 191.14V190.936H280.117C279.592 190.125 278.781 189.79 278.111 189.135C276.544 187.598 274.801 185.69 273.507 183.928C269.856 178.974 266.632 173.549 263.692 167.904C262.289 165.21 261.07 162.237 259.888 159.493C259.43 158.436 259.436 156.835 258.488 156.291C257.188 158.299 255.283 159.925 254.279 162.298C252.678 166.092 252.472 170.719 251.877 175.516L251.476 175.714C248.684 175.042 247.705 172.169 246.668 169.706C244.046 163.478 243.558 153.446 245.867 146.275C246.464 144.418 249.161 138.575 248.068 136.859C247.546 135.15 245.825 134.162 244.866 132.851C243.675 131.237 242.484 129.111 241.661 127.243C239.514 122.387 238.512 116.934 236.256 112.023C235.174 109.674 233.35 107.301 231.849 105.215C230.19 102.9 228.329 101.198 227.041 98.4038C226.583 97.4108 225.961 95.8183 226.639 94.7975C226.854 94.1086 227.164 93.8213 227.844 93.5954C229.004 92.7001 232.24 93.8938 233.45 94.3959C236.663 95.7318 239.343 97.0009 242.066 98.8026C243.371 99.67 244.69 101.343 246.271 101.806H248.073C250.893 102.453 254.053 102.004 256.686 102.805C261.344 104.222 265.516 106.422 269.304 108.815C280.847 116.106 290.283 126.481 296.742 138.859C297.78 140.853 298.232 142.753 299.144 144.867C300.99 149.128 303.316 153.516 305.151 157.685C306.984 161.844 308.772 166.041 311.363 169.503C312.724 171.321 317.984 172.297 320.374 173.307C322.05 174.015 324.795 174.754 326.382 175.708C329.413 177.538 332.353 179.716 335.195 181.719C336.615 182.728 340.985 184.923 341.203 186.733ZM251.677 110.427C250.21 110.4 249.169 110.589 248.07 110.829V111.027H248.271C248.971 112.469 250.207 113.395 251.074 114.633L253.08 118.839L253.278 118.641C254.519 117.768 255.085 116.371 255.079 114.234C254.58 113.71 254.508 113.055 254.078 112.433C253.509 111.596 252.399 111.127 251.677 110.427Z" fill="#00618A"/>
</svg>
