<svg width="154" height="154" viewBox="0 0 154 154" fill="none" xmlns="http://www.w3.org/2000/svg">
<path d="M127.536 39.7271C127.267 39.6165 126.992 39.5106 126.718 39.4047C112.56 33.8222 98.3434 28.3841 84.2765 22.5706C79.8393 20.737 76.0519 20.5349 71.4848 22.4022C55.8298 28.7932 39.9822 34.7173 24.1924 40.7715C23.0711 41.1998 22.7005 41.7484 22.7438 42.9419C22.9171 47.8025 22.8112 52.6632 23.047 57.5286C23.355 63.9052 23.1625 70.301 23.3839 76.6872C23.6775 85.1187 23.4753 93.5646 23.8651 102.001C23.8651 104.056 23.9325 106.111 23.8411 108.156C23.7881 109.378 24.1924 110.004 25.3233 110.558C42.0564 118.748 58.7606 126.992 75.4551 135.255C76.4513 135.746 77.2502 135.814 78.232 135.25C79.6468 134.432 81.1387 133.739 82.6113 133.017C97.5878 125.645 112.569 118.272 127.555 110.918C128.465 110.476 129.038 110.047 129.066 108.873C129.36 98.4493 129.74 88.0302 130.058 77.6112C130.25 71.3453 130.202 65.065 130.578 58.8087C130.852 54.2465 130.809 49.6794 131.035 45.1171C131.275 40.2613 132.108 41.5463 127.531 39.732L127.536 39.7271ZM73.4531 124.634C73.4531 126.054 73.2703 126.362 71.865 125.659C58.6547 119.08 45.4251 112.55 32.1763 106.048C31.1801 105.557 30.8818 104.97 30.8721 103.897C30.7759 94.8784 30.646 85.855 30.4727 76.8363C30.3091 68.3471 30.0781 59.8627 29.8808 51.3734C29.8663 50.7333 29.8808 50.0933 29.8808 49.1452C35.3863 51.5274 40.5934 53.7652 45.7861 56.0271C54.5833 59.8627 63.371 63.7271 72.1826 67.5338C73.1885 67.9669 73.5542 68.4867 73.5494 69.6031C73.482 87.9436 73.4531 106.289 73.458 124.629L73.4531 124.634ZM76.1289 61.6385C63.1063 55.9308 50.0692 50.2617 37.037 44.5733C36.6856 44.4193 36.2188 44.3808 36.0119 43.7504C49.6794 38.4951 63.2747 33.2688 76.8556 28.0231C77.5149 27.7681 78.0731 27.8162 78.7084 28.0665C91.5578 33.1196 104.407 38.1535 117.261 43.1922C117.526 43.298 117.834 43.3606 117.974 43.837C114.706 45.3 111.424 46.7775 108.132 48.2405C98.1846 52.6583 88.2371 57.0666 78.2897 61.4845C77.5775 61.8021 76.9422 61.9994 76.1289 61.6385ZM123.787 50.974C123.542 60.0455 123.291 69.1219 123.012 78.1935C122.825 84.339 122.589 90.4798 122.367 96.6205C122.271 99.3107 122.088 102.001 122.088 104.691C122.088 105.851 121.39 106.164 120.592 106.558C109.186 112.165 97.7851 117.776 86.3795 123.383C84.5026 124.307 82.6161 125.226 80.4698 126.275C80.4698 124.499 80.4698 123.094 80.4698 121.694C80.4986 104.518 80.5468 87.3468 80.5179 70.171C80.5179 68.6455 81.004 67.9669 82.414 67.3461C95.6003 61.5615 108.748 55.6806 121.901 49.819C123.816 48.9672 123.845 48.9479 123.787 50.9691V50.974Z" fill="#444444"/>
</svg>
