<svg width="309" height="309" viewBox="0 0 309 309" fill="none" xmlns="http://www.w3.org/2000/svg">
<g clip-path="url(#clip0_2217_582)">
<path d="M262.65 0H46.35C20.7516 0 0 20.7516 0 46.35V262.65C0 288.248 20.7516 309 46.35 309H262.65C288.248 309 309 288.248 309 262.65V46.35C309 20.7516 288.248 0 262.65 0Z" fill="#777BB3"/>
<path d="M93.5449 121.91H58.541C58.1492 121.888 57.7607 121.994 57.4342 122.211C57.1076 122.429 56.8607 122.747 56.7305 123.117L40.4355 208.213C40.4355 210.023 42.2461 210.023 42.2461 210.023H60.3516C62.1621 210.023 62.1621 208.816 62.1621 208.816L66.3867 187.693H82.6816C108.029 187.693 120.703 170.795 123.721 155.707C126.738 140.619 124.324 121.91 93.5449 121.91ZM101.391 154.5C98.9766 165.967 91.1309 170.795 80.2676 170.795H69.4043L76.043 138.809H86.9062C103.201 138.809 102.598 144.844 101.391 154.5Z" fill="black" stroke="white" stroke-width="6"/>
<path d="M165.967 187.693C163.553 187.693 164.156 185.279 164.156 185.279L171.398 148.465C171.398 143.637 175.02 138.809 160.535 139.412H149.672L140.619 186.486C140.619 186.486 140.619 188.297 138.205 188.297H120.703C118.893 188.297 118.893 186.486 118.893 186.486L135.791 101.391C135.791 101.391 135.791 100.184 138.205 100.184H156.311C158.121 100.184 157.518 101.994 157.518 101.994L153.293 122.514H168.984C190.711 122.514 196.143 132.773 194.332 144.844L186.486 186.486C186.486 186.486 186.486 188.297 183.469 188.297L165.967 187.693Z" fill="black" stroke="white" stroke-width="6"/>
<path d="M237.785 121.91H202.781C202.389 121.888 202.001 121.994 201.674 122.211C201.348 122.429 201.101 122.747 200.971 123.117L184.676 208.213C184.676 210.023 186.486 210.023 186.486 210.023H204.592C206.402 210.023 206.402 208.816 206.402 208.816L210.627 187.693H226.922C252.27 187.693 264.943 170.795 267.961 155.707C270.979 140.619 268.564 121.91 237.785 121.91ZM245.631 154.5C243.217 165.967 235.371 170.795 224.508 170.795H213.645L220.283 138.809H231.146C247.441 138.809 246.838 144.844 245.631 154.5Z" fill="black" stroke="white" stroke-width="6"/>
</g>
<defs>
<clipPath id="clip0_2217_582">
<rect width="309" height="309" fill="white"/>
</clipPath>
</defs>
</svg>
