<svg width="205" height="183" viewBox="0 0 205 183" fill="none" xmlns="http://www.w3.org/2000/svg">
<g clip-path="url(#clip0_2217_593)">
<path d="M168.551 59.2532C166.425 58.5195 164.221 57.8253 161.952 57.1688C162.325 55.6433 162.667 54.1376 162.971 52.6574C167.967 28.3529 164.701 8.77296 153.548 2.32642C142.853 -3.85496 125.363 2.59012 107.699 17.998C106.001 19.4796 104.297 21.0483 102.595 22.6923C101.46 21.6046 100.328 20.5535 99.1981 19.548C80.6857 3.0729 62.13 -3.86995 50.9878 2.59524C40.3036 8.79454 37.1396 27.2015 41.6362 50.2351C42.0705 52.4599 42.578 54.7319 43.152 57.0419C40.5259 57.7891 37.9905 58.5857 35.5647 59.4331C13.861 67.0175 0 78.904 0 91.2335C0 103.967 14.8798 116.74 37.4859 124.484C39.2699 125.096 41.121 125.673 43.0287 126.222C42.4095 128.72 41.8709 131.169 41.4188 133.557C37.1312 156.19 40.4795 174.163 51.1352 180.323C62.1416 186.684 80.6135 180.145 98.6003 164.386C100.022 163.141 101.449 161.82 102.878 160.435C104.731 162.223 106.58 163.915 108.42 165.503C125.842 180.53 143.05 186.598 153.696 180.42C164.691 174.04 168.265 154.734 163.625 131.245C163.271 129.451 162.859 127.618 162.396 125.753C163.693 125.368 164.966 124.972 166.208 124.559C189.709 116.755 205 104.138 205 91.2335C205 78.8594 190.692 66.8928 168.551 59.2532ZM163.454 116.227C162.333 116.599 161.183 116.959 160.011 117.307C157.416 109.075 153.915 100.321 149.63 91.2763C153.719 82.4473 157.085 73.8053 159.607 65.6262C161.704 66.2344 163.739 66.8759 165.701 67.5529C184.671 74.0986 196.242 83.7764 196.242 91.2335C196.242 99.1767 183.745 109.488 163.454 116.227ZM155.034 132.95C157.086 143.336 157.379 152.727 156.02 160.068C154.799 166.665 152.344 171.063 149.308 172.824C142.847 176.572 129.031 171.7 114.131 158.849C112.423 157.375 110.703 155.802 108.977 154.138C114.753 147.806 120.526 140.444 126.161 132.269C136.071 131.387 145.434 129.946 153.925 127.979C154.343 129.67 154.714 131.328 155.034 132.95ZM69.8891 172.176C63.5771 174.411 58.5499 174.475 55.5111 172.718C49.0447 168.98 46.3565 154.55 50.0234 135.194C50.4434 132.977 50.9433 130.7 51.5195 128.372C59.9172 130.234 69.2115 131.573 79.1455 132.38C84.8178 140.38 90.7576 147.733 96.7434 154.172C95.4356 155.437 94.1329 156.642 92.8375 157.777C84.8839 164.745 76.9134 169.69 69.8891 172.176ZM40.3182 116.178C30.3222 112.754 22.0672 108.303 16.4087 103.447C11.3242 99.0823 8.75717 94.7494 8.75717 91.2335C8.75717 83.7516 19.8862 74.2083 38.4474 67.7219C40.6995 66.9348 43.0571 66.1931 45.5038 65.4964C48.069 73.8601 51.4341 82.6046 55.495 91.4471C51.3815 100.421 47.9687 109.305 45.3783 117.767C43.634 117.264 41.9442 116.735 40.3182 116.178ZM50.2307 48.5494C46.3781 28.8148 48.9367 13.9277 55.3753 10.192C62.2336 6.21241 77.3991 11.8865 93.383 26.112C94.4048 27.0212 95.4305 27.9729 96.4591 28.9574C90.5029 35.3678 84.6175 42.6658 78.9955 50.6184C69.3542 51.5141 60.1252 52.9529 51.6399 54.8797C51.1064 52.7287 50.6339 50.6155 50.2307 48.5494ZM138.658 70.435C136.63 66.9231 134.547 63.4943 132.424 60.1591C138.965 60.9879 145.232 62.088 151.117 63.4343C149.35 69.1099 147.148 75.044 144.556 81.1274C142.696 77.5888 140.73 74.021 138.658 70.435ZM102.598 35.2306C106.637 39.6169 110.682 44.5142 114.661 49.8277C110.652 49.6379 106.593 49.5391 102.5 49.5391C98.446 49.5391 94.4168 49.6357 90.4321 49.8222C94.415 44.5581 98.4952 39.6674 102.598 35.2306ZM66.3062 70.4957C64.2799 74.0174 62.3496 77.5658 60.5193 81.1208C57.969 75.0587 55.7873 69.0975 54.0052 63.3414C59.8541 62.0295 66.0913 60.9568 72.5905 60.1438C70.4376 63.5097 68.338 66.9645 66.3062 70.4957ZM72.7777 122.949C66.0628 122.199 59.7319 121.181 53.8844 119.905C55.695 114.047 57.9249 107.958 60.5292 101.765C62.3642 105.318 64.3022 108.868 66.3409 112.397C68.4175 115.993 70.5693 119.515 72.7777 122.949ZM102.84 147.855C98.6894 143.367 94.5493 138.401 90.5058 133.06C94.431 133.215 98.4329 133.294 102.5 133.294C106.678 133.294 110.809 133.199 114.875 133.018C110.883 138.455 106.852 143.428 102.84 147.855ZM144.639 101.45C147.379 107.709 149.689 113.766 151.523 119.525C145.579 120.884 139.162 121.979 132.4 122.792C134.528 119.412 136.629 115.924 138.693 112.337C140.782 108.707 142.765 105.072 144.639 101.45ZM131.108 107.952C127.903 113.521 124.613 118.837 121.273 123.855C115.19 124.291 108.905 124.516 102.5 124.516C96.1205 124.516 89.9151 124.317 83.9395 123.929C80.465 118.844 77.1035 113.512 73.9194 107.999C70.7437 102.502 67.8216 96.9574 65.1732 91.4442C67.8209 85.9182 70.7361 80.3677 73.8935 74.8798L73.8928 74.8809C77.0586 69.3783 80.3905 64.0722 83.833 59.0198C89.9297 58.5579 96.1814 58.3169 102.5 58.3169C108.846 58.3169 115.106 58.5597 121.201 59.0257C124.591 64.0411 127.9 69.3301 131.079 74.8334C134.293 80.3985 137.246 85.912 139.916 91.3195C137.254 96.8198 134.308 102.389 131.108 107.952ZM149.173 9.9309C156.038 13.8988 158.708 29.9014 154.395 50.8858C154.119 52.2248 153.81 53.5886 153.473 54.9707C144.968 53.0038 135.733 51.5401 126.063 50.6309C120.43 42.5908 114.593 35.2815 108.734 28.9534C110.309 27.4345 111.882 25.9862 113.449 24.6194C128.583 11.418 142.728 6.20583 149.173 9.9309ZM102.5 72.8854C112.61 72.8854 120.806 81.0999 120.806 91.2335C120.806 101.367 112.61 109.582 102.5 109.582C92.3902 109.582 84.1942 101.367 84.1942 91.2335C84.1942 81.0999 92.3902 72.8854 102.5 72.8854Z" fill="#00D8FF"/>
</g>
<defs>
<clipPath id="clip0_2217_593">
<rect width="205" height="183" fill="white"/>
</clipPath>
</defs>
</svg>
