<svg width="199" height="220" viewBox="0 0 199 220" fill="none" xmlns="http://www.w3.org/2000/svg">
<path d="M153.23 64.1667L147.675 62.2417C147.675 60.8667 148.255 59.4 148.587 58.025C152.732 35.475 149.996 17.325 140.295 11.3667C130.594 5.40836 116.664 11.3667 101.739 25.9417C100.329 27.3167 98.8366 28.7834 97.51 30.25L95.0225 27.5C79.4341 11.825 63.8458 5.3167 54.4762 11.3667C45.1066 17.4167 42.785 34.1917 46.1846 55.55C46.5162 57.6889 46.9308 59.7972 47.4283 61.875C45.2725 62.5167 43.1166 63.25 41.0437 64.075C22.8021 71.0417 9.70123 82.4084 9.70123 93.5917C9.70123 104.775 23.6312 117.242 42.8679 124.392L47.5112 126.042C47.0137 128.333 46.5991 130.533 46.1846 132.825C42.6191 153.817 45.3554 170.5 54.4762 176.183C63.5971 181.867 79.3512 176.183 94.3591 161.425L97.9246 157.758C99.4171 159.408 100.992 160.875 102.568 162.433C117.244 176.367 131.755 181.958 140.71 176.275C149.665 170.592 152.898 152.442 149.001 130.442C149.001 128.7 148.338 127.05 148.006 125.308L151.24 124.208C170.974 116.967 185.236 105.325 185.236 93.3167C185.236 81.3084 171.886 70.95 153.23 64.1667ZM106.962 31.8084C119.649 19.525 131.837 14.6667 136.978 18.15C142.119 21.6334 145.27 36.4834 141.373 56.1C141.373 57.3834 140.875 58.6667 140.544 59.95C132.955 58.0118 125.252 56.664 117.493 55.9167C113.074 48.8437 108.197 42.1344 102.9 35.8417C104.226 34.375 105.553 33.0917 106.962 31.8084ZM67.3283 113.208C69.0696 116.508 70.8937 119.808 72.7179 123.017C67.4112 122.375 62.1046 121.367 56.8808 120.175C58.3733 114.675 60.2804 109.083 62.4362 103.308C64.0116 106.608 65.5871 109.908 67.3283 113.208ZM56.9637 67.375C61.8558 66.1834 67.1625 65.175 72.5521 64.4417C70.7279 67.5584 68.9866 70.6139 67.3283 73.6084C65.5871 76.8167 64.0116 80.1167 62.4362 83.4167C60.3482 78.0281 58.5215 72.5203 56.9637 66.9167V67.375ZM66.3333 93.775C68.5721 88.55 71.0596 83.4167 73.63 78.375C76.2004 73.3334 79.1025 68.475 81.9216 63.7084C87.0625 63.7084 92.2862 63.0667 97.6758 63.0667C103.065 63.0667 108.289 63.0667 113.347 63.7084C116.249 68.475 119.068 72.875 121.639 78.2834C124.209 83.6917 126.78 88.4584 129.101 93.5917C126.78 98.8167 124.375 103.95 121.722 108.992C119.068 114.033 116.083 119.167 113.513 123.75C108.372 124.208 103.065 124.392 97.7587 124.392C92.4521 124.392 87.1454 124.392 82.0875 123.842C79.1025 119.075 76.3662 114.125 73.7958 109.083C71.2254 104.042 68.655 99 66.3333 93.775ZM128.189 113.117C129.93 109.817 131.506 106.425 133.164 103.033C135.32 108.533 137.227 114.033 138.968 119.808C133.662 121.092 128.272 122.1 122.882 122.833C124.707 119.625 126.448 116.417 128.189 113.117ZM133.081 84.15C131.478 80.85 129.82 77.55 128.106 74.25C126.448 71.0417 124.707 67.8334 122.882 65.0834C128.179 65.7775 133.438 66.7873 138.637 68.1084C137.034 73.5571 135.18 78.9114 133.081 84.15ZM97.7587 41.6167C101.342 45.852 104.692 50.3211 107.792 55C101.103 55 94.3591 55 87.56 55C90.7538 50.3521 94.1577 45.8853 97.7587 41.6167ZM58.0416 18.3334C63.7629 14.575 76.5321 19.8917 89.9646 33.0917L92.6179 35.75C87.3175 42.0962 82.4141 48.834 77.9416 55.9167C70.2172 56.6852 62.5454 58.0018 54.9737 59.8584C54.9737 57.9334 54.1446 55.9167 53.8129 53.9917C50.5791 35.6584 52.6521 21.8167 58.0416 18.3334ZM49.75 118.158L45.5212 116.692C37.778 114.137 30.4869 110.138 23.9629 104.867C22.2492 103.58 20.7965 101.913 19.6973 99.972C18.5981 98.0308 17.8765 95.858 17.5783 93.5917C17.5783 86.625 28.3575 77.825 43.9458 71.775L49.75 69.6667C52.0457 77.8902 54.8153 85.9427 58.0416 93.775C54.816 101.702 52.0466 109.846 49.75 118.158ZM89.7158 155.283C84.0578 160.972 77.5115 165.475 70.3962 168.575C68.4842 169.609 66.3983 170.192 64.2713 170.287C62.1443 170.382 60.0228 169.986 58.0416 169.125C52.6521 165.642 50.3304 152.258 53.3983 134.292C53.3983 132.183 54.2275 130.075 54.725 127.967C62.3773 129.784 70.135 131.009 77.9416 131.633C82.4681 138.725 87.3977 145.492 92.7008 151.892L89.4671 155.283H89.7158ZM98.0075 146.117C94.3467 141.728 90.8875 137.139 87.6429 132.367H97.7587C97.7587 132.367 104.724 132.367 108.123 132.367C104.972 137.5 101.573 141.625 98.0075 146.025V146.117ZM142.7 157.483C142.558 159.78 141.983 162.019 141.012 164.055C140.041 166.092 138.695 167.881 137.061 169.308C131.672 172.792 120.063 168.3 107.543 156.383L103.148 152.075C108.395 145.685 113.216 138.884 117.576 131.725C125.45 131.023 133.265 129.675 140.958 127.692C140.958 129.25 141.622 130.808 141.87 132.275C143.556 140.518 143.837 149.035 142.7 157.392V157.483ZM149.25 116.692L146.265 117.7C143.903 109.438 140.993 101.38 137.559 93.5917C140.807 85.8637 143.577 77.901 145.85 69.7584L150.991 71.5C166.994 77.55 178.188 86.625 178.188 93.5C178.188 100.375 165.833 110.458 149.25 116.692ZM98.0075 111.008C101.096 110.954 104.101 109.892 106.645 107.956C109.189 106.019 111.159 103.295 112.307 100.125C113.455 96.9549 113.73 93.4804 113.098 90.138C112.465 86.7956 110.954 83.7344 108.752 81.3388C106.551 78.9433 103.759 77.3204 100.726 76.6739C97.6928 76.0274 94.5546 76.3862 91.7056 77.7051C88.8565 79.0241 86.4235 81.2445 84.7123 84.0873C83.001 86.9301 82.0879 90.2686 82.0875 93.6834C82.0875 95.9585 82.4928 98.2114 83.2804 100.313C84.0679 102.415 85.2223 104.325 86.6775 105.934C88.1327 107.543 89.8603 108.819 91.7616 109.69C93.6629 110.56 95.7007 111.008 97.7587 111.008H98.0075ZM18.905 200.108C20.4465 199.531 21.775 198.413 22.6881 196.923C23.6013 195.434 24.0489 193.655 23.9629 191.858C24.0362 190.634 23.8719 189.406 23.4812 188.257C23.0904 187.108 22.4821 186.065 21.697 185.197C20.912 184.329 19.9682 183.656 18.929 183.224C17.8898 182.792 16.7791 182.611 15.6712 182.692H4.97498V211.658H9.03789V200.842H14.7591L20.0658 211.933H24.875L18.905 200.108ZM14.8421 196.992H9.03789V186.908H14.7591C15.401 186.815 16.0535 186.877 16.6716 187.09C17.2897 187.303 17.8587 187.661 18.3395 188.14C18.8203 188.619 19.2013 189.208 19.4564 189.866C19.7115 190.524 19.8345 191.235 19.8171 191.95C19.8471 192.661 19.7354 193.371 19.49 194.029C19.2446 194.687 18.8714 195.277 18.3968 195.758C17.9222 196.239 17.3578 196.599 16.7435 196.812C16.1293 197.025 15.4801 197.086 14.8421 196.992ZM42.9508 202.125V200.658C42.9508 193.783 39.6341 189.567 34.0787 189.567C32.7659 189.555 31.466 189.854 30.2663 190.444C29.0666 191.033 27.9949 191.9 27.1232 192.985C26.2514 194.071 25.5998 195.349 25.212 196.736C24.8243 198.123 24.7093 199.585 24.875 201.025C24.7068 202.456 24.8212 203.911 25.2101 205.289C25.599 206.666 26.2533 207.935 27.1279 209.006C28.0026 210.077 29.0768 210.927 30.2767 211.495C31.4766 212.064 32.7737 212.339 34.0787 212.3C35.8972 212.398 37.6945 211.832 39.193 210.689C40.6916 209.546 41.8082 207.889 42.3704 205.975H38.9708C38.5055 206.882 37.8093 207.617 36.969 208.089C36.1287 208.562 35.1813 208.751 34.2446 208.633C33.5153 208.649 32.7912 208.495 32.1189 208.182C31.4466 207.87 30.8411 207.405 30.3412 206.817C29.8413 206.23 29.4581 205.534 29.2164 204.773C28.9748 204.012 28.8799 203.204 28.9379 202.4L42.9508 202.125ZM34.0787 192.958C34.7421 192.931 35.4033 193.058 36.0193 193.332C36.6352 193.605 37.1921 194.02 37.6536 194.547C38.1152 195.075 38.471 195.704 38.6979 196.393C38.9249 197.083 39.0179 197.818 38.9708 198.55H28.9379C29.0229 197.115 29.6045 195.772 30.5618 194.799C31.5191 193.826 32.7786 193.298 34.0787 193.325V192.958ZM52.5691 189.2C48.0916 189.2 44.8579 191.675 44.2775 195.433H48.0916C48.0916 193.875 49.9987 192.958 52.2375 192.958C54.4762 192.958 56.2175 194.333 56.2175 196.625V198.458H50.9108C46.1846 198.458 43.5312 201.025 43.5312 204.967C43.5389 205.894 43.7209 206.81 44.0658 207.656C44.4107 208.502 44.9109 209.259 45.5347 209.88C46.1585 210.5 46.8922 210.971 47.6892 211.261C48.4863 211.552 49.3292 211.656 50.1646 211.567C51.3382 211.623 52.504 211.329 53.5397 210.717C54.5755 210.104 55.4431 209.194 56.0516 208.083V211.2H59.7829V196.992C60.2804 192.5 57.4612 189.567 52.5691 189.567V189.2ZM56.3833 203.5C56.3417 204.183 56.1769 204.85 55.8985 205.462C55.6202 206.073 55.2341 206.617 54.7628 207.061C54.2915 207.506 53.7446 207.841 53.1542 208.048C52.5639 208.255 51.9421 208.329 51.3254 208.267C49.1696 208.267 47.5941 207.075 47.5941 205.15C47.5941 203.225 48.8379 202.217 51.5741 202.033H56.3833V203.5ZM76.0346 196.808C75.7648 195.679 75.1424 194.691 74.2774 194.02C73.4125 193.349 72.3608 193.038 71.3083 193.142C68.0746 193.142 66.0846 195.892 66.0846 200.567C66.0846 205.242 68.0746 208.083 71.3083 208.083C72.3554 208.23 73.4148 207.947 74.2858 207.289C75.1569 206.63 75.7791 205.64 76.0346 204.508H79.8487C79.5799 206.68 78.5728 208.656 77.0324 210.035C75.492 211.415 73.5341 212.093 71.5571 211.933C70.2372 211.988 68.9226 211.721 67.7058 211.153C66.4891 210.585 65.3997 209.729 64.5144 208.646C63.6291 207.562 62.9694 206.277 62.5817 204.881C62.194 203.486 62.0877 202.013 62.2704 200.567C62.1424 199.172 62.2813 197.764 62.6778 196.433C63.0743 195.102 63.7198 193.878 64.5721 192.84C65.4245 191.803 66.4647 190.975 67.6252 190.411C68.7858 189.847 70.0406 189.56 71.3083 189.567C73.2837 189.535 75.2043 190.284 76.7245 191.679C78.2446 193.074 79.2643 195.023 79.6 197.175L76.0346 196.808ZM87.0625 184.25V189.75H91.2083V193.417H87.0625V204.692C87.0625 206.892 87.8916 207.9 89.8816 207.9H91.2083V211.475C90.5201 211.571 89.8236 211.571 89.1354 211.475C84.8237 211.475 83.0825 209.825 83.0825 205.608V193.783H80.0146V190.117H82.9166V184.617L87.0625 184.25ZM100.992 211.75V183.333H104.641L118.073 203.867V183.333H121.97V212.3H118.322L104.89 191.675V212.3L100.992 211.75ZM133.413 189.383C128.935 189.383 125.702 191.858 125.121 195.617H128.935C128.935 194.058 130.842 193.142 133.081 193.142C135.32 193.142 137.061 194.517 137.061 196.808V198.642H131.755C127.028 198.642 124.375 201.208 124.375 205.15C124.383 206.078 124.565 206.994 124.91 207.839C125.254 208.685 125.755 209.442 126.378 210.063C127.002 210.684 127.736 211.154 128.533 211.445C129.33 211.735 130.173 211.839 131.008 211.75C132.182 211.806 133.348 211.513 134.383 210.9C135.419 210.287 136.287 209.378 136.895 208.267V211.383H140.958V196.992C140.958 192.5 138.388 189.567 133.413 189.567V189.383ZM137.227 203.683C137.185 204.366 137.021 205.033 136.742 205.645C136.464 206.257 136.078 206.801 135.607 207.245C135.135 207.689 134.588 208.024 133.998 208.231C133.408 208.438 132.786 208.513 132.169 208.45C130.013 208.45 128.438 207.258 128.438 205.333C128.438 203.408 129.682 202.4 132.418 202.217H137.227V203.683ZM149.25 184.617V190.117H153.562V193.783H149.25V205.058C149.25 207.258 150.162 208.267 152.069 208.267H153.562V211.842C152.846 211.945 152.121 211.945 151.406 211.842C147.094 211.842 145.353 210.192 145.353 205.975V193.783H142.202V190.117H145.353V184.617H149.25ZM154.888 183.608C154.838 183.034 154.947 182.456 155.201 181.952C155.455 181.448 155.842 181.041 156.31 180.786C156.778 180.531 157.305 180.439 157.822 180.523C158.338 180.607 158.819 180.863 159.201 181.257C159.582 181.651 159.846 182.164 159.958 182.727C160.069 183.291 160.023 183.879 159.825 184.413C159.627 184.947 159.286 185.401 158.849 185.716C158.411 186.031 157.898 186.191 157.376 186.175C157.032 186.202 156.687 186.147 156.364 186.014C156.041 185.881 155.747 185.673 155.504 185.403C155.26 185.134 155.071 184.809 154.951 184.452C154.83 184.095 154.781 183.714 154.805 183.333L154.888 183.608ZM155.469 190.025H159.366V211.933H155.469V190.025ZM172.052 211.933H167.906L160.775 190.025H164.921L169.813 207.258L174.705 190.025H178.851L172.052 211.933ZM196.927 202.125V200.658C197.108 199.264 197.012 197.843 196.646 196.494C196.281 195.145 195.655 193.9 194.811 192.845C193.967 191.79 192.926 190.95 191.759 190.384C190.593 189.818 189.329 189.539 188.055 189.567C186.749 189.568 185.458 189.877 184.269 190.472C183.079 191.068 182.018 191.936 181.155 193.02C180.292 194.104 179.648 195.378 179.265 196.758C178.882 198.138 178.769 199.593 178.934 201.025C178.753 202.451 178.855 203.904 179.234 205.282C179.612 206.66 180.258 207.93 181.127 209.003C181.995 210.077 183.065 210.928 184.262 211.497C185.458 212.067 186.753 212.341 188.055 212.3C189.873 212.398 191.671 211.832 193.169 210.689C194.668 209.546 195.784 207.889 196.347 205.975H192.532C192.099 206.891 191.42 207.637 190.59 208.113C189.759 208.589 188.816 208.77 187.889 208.633C187.16 208.649 186.436 208.495 185.764 208.182C185.091 207.87 184.486 207.405 183.986 206.817C183.486 206.23 183.103 205.534 182.861 204.773C182.619 204.012 182.524 203.204 182.582 202.4L196.927 202.125ZM188.055 192.958C188.715 192.945 189.37 193.082 189.98 193.36C190.591 193.639 191.142 194.053 191.601 194.578C192.06 195.102 192.416 195.726 192.648 196.409C192.88 197.092 192.981 197.821 192.947 198.55H182.417C182.501 197.131 183.071 195.802 184.01 194.831C184.95 193.86 186.189 193.322 187.475 193.325L188.055 192.958Z" fill="#080736"/>
</svg>
