<svg width="207" height="207" viewBox="0 0 207 207" fill="none" xmlns="http://www.w3.org/2000/svg">
<g clip-path="url(#clip0_2217_551)">
<path d="M143.428 142.49C128.874 172.247 103.387 192.267 69.6684 198.849C64.4984 200.116 59.1911 200.735 53.8685 200.693C34.4622 200.693 16.6732 192.607 8.03737 179.362C-3.55786 161.719 -7.5038 124.313 30.7265 96.6432C31.5028 100.864 33.0876 106.654 34.1388 110.082C26.6339 115.658 20.491 122.862 16.1718 131.154C9.0562 145.126 9.84862 159.083 18.2742 171.988C24.096 180.688 33.314 185.977 45.168 187.594C59.9739 189.468 74.9943 186.639 88.1043 179.508C108.659 168.705 122.356 155.8 131.316 138.156C128.782 135.538 127.283 132.091 127.095 128.453C126.959 124.549 128.378 120.751 131.04 117.892C133.702 115.033 137.39 113.346 141.294 113.203H141.843C145.641 113.184 149.3 114.626 152.064 117.229C154.828 119.833 156.485 123.399 156.693 127.191C156.9 130.982 155.643 134.708 153.18 137.598C150.717 140.488 147.237 142.321 143.461 142.717L143.428 142.49ZM189.793 109.823C209.539 132.205 210.073 158.549 202.439 173.832C195.324 187.788 176.564 201.76 151.336 201.76C139.559 201.52 127.974 198.734 117.375 193.594C121.079 190.958 126.335 186.737 129.229 184.101C137.402 187.641 146.198 189.521 155.104 189.631C171.438 189.631 183.809 181.998 191.184 168.042C195.922 158.824 196.197 148.021 191.718 136.96C186.221 123.042 176.44 111.233 163.789 103.241C147.191 92.0527 127.624 86.0881 107.608 86.1153H102.869C101.764 88.6676 99.9668 90.8596 97.6803 92.443C95.3938 94.0264 92.7096 94.938 89.9317 95.0745H89.4304C85.5882 95.0273 81.9158 93.4841 79.1932 90.7727C76.4705 88.0613 74.9121 84.3953 74.849 80.5534C74.7858 76.7114 76.2229 72.9962 78.8549 70.1968C81.487 67.3974 85.1067 65.7343 88.9453 65.5608H89.4789C92.1539 65.5628 94.7765 66.302 97.0588 67.697C99.3412 69.0921 101.195 71.0892 102.416 73.4689H106.637C140.275 73.4689 169.805 86.3741 189.793 109.823ZM55.9708 147.019C55.6939 144.333 56.3445 141.634 57.8144 139.369C43.0657 113.818 35.1738 81.4255 47.2865 47.7071C55.9708 22.3658 77.8352 5.23975 101.543 5.23975C126.836 5.23975 153.18 27.379 156.333 70.0405C152.388 68.7305 146.63 66.8061 143.17 66.0945C142.312 52.1382 130.523 17.3687 102.594 17.8862C92.5839 18.1611 77.8352 22.8994 70.2506 32.6349C60.8687 44.2563 55.4109 58.5519 54.6609 73.4689C52.8831 93.9227 57.682 114.41 68.3585 131.946C68.9479 131.731 69.5761 131.643 70.2021 131.688H70.7196C74.6312 131.617 78.4107 133.103 81.2267 135.819C84.0426 138.535 85.6644 142.258 85.7351 146.17C85.8059 150.081 84.3199 153.861 81.604 156.677C78.8881 159.493 75.1648 161.114 71.2532 161.185H70.7196C66.9035 161.172 63.2399 159.686 60.4922 157.038C57.7446 154.389 56.1249 150.783 55.9708 146.97V147.019Z" fill="#764ABC"/>
</g>
<defs>
<clipPath id="clip0_2217_551">
<rect width="207" height="207" fill="white"/>
</clipPath>
</defs>
</svg>
