<svg width="310" height="310" viewBox="0 0 310 310" fill="none" xmlns="http://www.w3.org/2000/svg">
<path fill-rule="evenodd" clip-rule="evenodd" d="M2.95215 136.003C2.95215 137.705 3.45348 138.829 3.73441 139.921C5.56535 147.025 9.5009 153.121 14.1703 158.681C20.8207 166.606 28.9655 172.985 37.3089 178.984C44.5454 184.186 51.9297 189.272 59.1954 194.435C60.4426 195.322 61.6221 196.341 62.9759 197.429C61.811 198.059 60.8422 198.613 59.8347 199.124C50.2465 203.987 41.0216 209.439 32.5184 216.043C27.3937 220.025 22.4386 224.256 18.9389 229.785C13.3081 238.678 11.3149 248.153 15.512 258.269C16.7375 261.223 18.6072 263.776 21.2446 265.663C22.0995 266.273 23.0586 266.879 24.0588 267.116C26.6211 267.719 29.2319 268.114 31.8257 268.591L39.1713 268.586C47.2943 267.862 54.6882 265.079 61.3702 260.468C71.8133 253.26 78.8489 243.597 81.8738 231.195C84.0729 222.18 84.1625 213.156 81.5711 204.183C81.3313 203.35 81.0286 202.534 80.7137 201.728C80.3989 200.921 80.0283 200.136 79.5924 199.131L96.2452 189.555L96.4947 189.768C96.1919 190.759 95.8698 191.747 95.5961 192.747C93.6175 199.974 92.3024 207.327 92.7747 214.828C93.2784 222.82 95.5089 230.301 100.188 236.978C103.971 242.379 112.985 242.58 117.006 237.16C118.432 235.234 119.815 233.222 120.854 231.074C123.569 225.467 126.083 219.761 128.677 214.094L129.129 213.057C128.943 215.741 128.725 218.097 128.626 220.456C128.471 224.14 128.686 227.802 129.946 231.306C131.023 234.304 132.857 236.545 136.291 236.939C138.64 237.208 140.512 236.133 142.239 234.769C144.937 232.64 147.129 230.01 148.756 227.022C153.36 218.567 158.088 210.163 162.261 201.495C166.775 192.12 170.723 182.471 174.915 172.936L175.608 171.246C176.598 175.138 177.288 178.95 178.56 182.559C180.037 186.746 181.866 190.834 183.857 194.808C184.799 196.685 184.69 197.904 183.384 199.478C177.921 206.065 172.551 212.733 167.177 219.393C165.988 220.863 164.804 222.36 163.813 223.965C163.215 224.941 162.818 226.13 162.651 227.269C162.328 229.444 163.673 231.541 166 232.042C168.126 232.5 170.391 232.67 172.558 232.51C180.059 231.957 186.869 229.325 192.89 224.864C200.691 219.085 203.195 211.2 201.306 201.854C200.795 199.318 199.892 196.852 199.013 194.409C198.618 193.307 198.591 192.534 199.311 191.507C205.547 182.602 210.875 173.154 215.83 163.489C216.026 163.108 216.227 162.728 216.571 162.321C218.177 170.677 220.594 178.73 224.924 186.036C222.716 188.165 220.529 190.095 218.55 192.222C214.193 196.906 210.415 201.992 208.443 208.194C207.596 210.868 206.944 213.585 207.322 216.441C207.908 220.875 211.541 223.757 215.903 222.747C225.237 220.587 233.294 216.189 239.182 208.397C243.144 203.152 243.505 197.3 241.846 191.171C241.391 189.504 240.851 187.865 240.269 185.954C242.572 185.24 244.818 184.382 247.14 183.852C259.199 181.101 271.126 181.58 282.747 185.935C289.53 188.478 295.011 192.733 298.261 199.427C302.231 207.61 300.036 215.375 292.323 220.548C291.603 221.03 290.78 221.41 290.184 222.013C289.818 222.384 289.598 223.125 289.688 223.636C289.738 223.934 290.526 224.307 290.979 224.302C293.514 224.283 295.57 222.953 297.544 221.587C302.49 218.165 306.098 213.561 306.876 207.499L307.028 207.044L306.842 203.096C306.767 202.868 306.897 202.643 306.881 202.471C305.829 193.643 301.114 186.797 294.255 181.43C286.312 175.218 276.932 172.66 267.012 172.256C258.927 171.926 250.981 173.128 243.362 175.896C241.19 176.683 239.037 177.615 236.852 178.495C236.559 177.964 236.244 177.456 235.985 176.93C233.742 172.338 231.025 167.95 230.424 162.685C229.998 158.945 229.475 155.211 230.364 151.513C231.219 147.955 232.333 144.458 233.381 140.948C233.922 139.142 233.541 138.129 231.817 137.315C231.216 137.032 230.562 136.785 229.913 136.691C225.675 136.075 221.495 136.427 217.39 137.621C215.937 138.044 214.881 138.858 214.559 140.466C214.375 141.389 213.999 142.273 213.738 143.184C212.665 146.969 211.904 150.827 210.17 154.433C205.825 163.479 200.865 172.183 195.789 180.824C195.239 181.757 194.661 182.672 193.968 183.803C192.185 180.074 190.284 176.727 189.708 172.803C189.056 168.366 188.543 163.937 189.647 159.534C190.468 156.25 191.541 153.026 192.529 149.786C192.997 148.245 192.781 147.436 191.386 146.625C190.681 146.216 189.885 145.853 189.09 145.734C184.695 145.082 180.364 145.424 176.123 146.795C174.808 147.221 174.118 148.071 173.716 149.427C172.534 153.428 171.527 157.526 169.868 161.331C163.15 176.734 156.237 192.057 149.333 207.378C147.892 210.577 146.204 213.665 144.579 216.78C144.167 217.569 143.566 218.264 143.053 219.005C142.641 218.519 142.481 218.184 142.484 217.85C142.496 215.881 142.261 213.854 142.636 211.95C143.772 206.191 145.08 200.463 146.458 194.758C147.596 190.045 148.921 185.375 150.183 180.694C150.607 179.127 150.614 177.661 149.488 176.344C147.596 174.138 143.644 173.653 141.299 175.353L140.263 175.94L140.464 174.268C140.958 170.686 141.057 167.117 140.074 163.588C138.848 159.19 135.71 156.659 131.147 156.799C129.02 156.865 126.787 157.228 124.818 158.003C116.538 161.248 110.171 166.996 104.751 173.91C104.259 174.537 103.61 175.109 102.917 175.494C95.911 179.379 88.8827 183.215 81.8568 187.066L74.0366 191.35C71.9393 189.349 70.0332 187.274 67.8705 185.513C61.2661 180.127 54.555 174.874 47.9046 169.548C42.0097 164.828 36.299 159.912 31.9299 153.661C28.6797 149.011 26.5848 143.922 26.3838 138.173C26.1295 130.847 28.2075 124.153 31.9372 117.921C36.7082 109.948 43.2158 103.55 50.37 97.7541C57.9384 91.6268 66.1243 86.4246 74.6082 81.6753C86.4778 75.0321 98.6864 69.1518 111.777 65.2695C125.199 61.288 138.817 59.009 152.864 60.5977C158.386 61.2226 163.748 62.4868 168.671 65.1872C172.442 67.253 175.535 69.9583 176.974 74.1869C178.393 78.3477 178.349 82.5641 177.366 86.7903C175.368 95.3492 170.682 102.404 164.784 108.708C155.111 119.042 143.312 126.078 130.028 130.726C122.363 133.407 114.477 135.09 106.378 135.77C99.769 136.325 93.2978 135.739 87.0396 133.44C82.8958 131.917 79.2872 129.587 76.3858 126.206C75.8675 125.601 75.2039 124.945 74.2376 125.511C73.2907 126.068 73.1236 126.969 73.4408 127.882C73.9712 129.398 74.4604 130.977 75.2863 132.334C77.3618 135.736 80.3892 138.204 83.7217 140.321C90.1227 144.392 97.2769 145.761 104.695 146.078C115.952 146.565 126.935 144.884 137.763 141.864C153.222 137.553 166.664 129.938 177.443 117.926C186.419 107.924 192.83 96.6352 194.203 83.0049C194.874 76.352 194.159 69.8348 191.045 63.7655C187.666 57.1902 182.294 52.3004 175.872 48.9316C166.518 44.0273 156.424 41.1719 146.005 41.1719H135.567C122.949 41.1719 110.75 44.7877 98.8923 49.1011C89.9168 52.3682 81.1158 56.2238 72.5714 60.4912C53.9641 69.7887 36.6356 80.9996 22.4022 96.4148C15.311 104.095 9.30715 112.569 5.85356 122.547C4.84363 125.468 3.88457 128.599 3.16285 131.619M70.5854 218.838C69.779 229.637 64.8843 238.392 56.8849 245.484C52.385 249.47 47.224 252.309 41.2129 253.306C39.0332 253.667 36.8027 253.754 34.6884 252.851C31.6732 251.563 30.9975 248.886 30.9393 246.036C30.8497 241.492 32.4409 237.385 34.623 233.476C37.4711 228.38 41.6465 224.496 46.1051 220.868C53.1286 215.15 60.7478 210.311 68.5511 205.743L69.1396 205.501C70.3457 209.957 70.9197 214.358 70.5854 218.838ZM131.515 171.905C130.946 175.353 130.234 178.805 129.226 182.147C125.744 193.716 121.27 204.927 116.434 215.988C115.54 218.034 114.24 219.901 113.109 221.841C112.934 222.142 112.675 222.401 112.423 222.65C111.023 224.033 109.696 223.96 108.989 222.151C108.166 220.049 107.659 217.799 107.224 215.574C106.931 214.079 107.001 212.51 106.909 210.979C107.003 200.095 110.324 190.204 115.957 180.996C118.279 177.199 120.808 173.581 124.671 171.178C125.857 170.439 127.189 169.846 128.534 169.468C130.592 168.889 131.856 169.841 131.515 171.905ZM173.084 224.866L188.025 207.421C188.647 213.9 177.635 226.833 173.084 224.866ZM220.802 213.127C219.746 213.733 218.596 214.169 217.513 214.728C216.523 215.242 216.196 214.723 216.167 213.871C216.147 213.292 216.232 212.687 216.392 212.125C218.409 205.009 222.122 198.935 227.646 193.995L228.034 193.796C230.662 201.146 227.625 209.219 220.802 213.127Z" fill="#CB6699"/>
</svg>
