<svg width="256" height="228" viewBox="0 0 256 228" fill="none" xmlns="http://www.w3.org/2000/svg">
<g clip-path="url(#clip0_2217_558)">
<path d="M128 0C93.8667 0 72.5333 25.2675 64 75.8026C76.8 50.5351 91.7333 41.0597 108.8 47.3766C118.537 50.9808 125.497 61.4394 133.201 73.0169C145.751 91.8763 160.275 113.704 192 113.704C226.133 113.704 247.467 88.4364 256 37.9013C243.2 63.1688 228.267 72.6442 211.2 66.3273C201.463 62.7231 194.503 52.2645 186.799 40.687C174.249 21.8276 159.725 0 128 0ZM64 113.704C29.8667 113.704 8.53333 138.971 0 189.507C12.8 164.239 27.7333 154.764 44.8 161.081C54.5375 164.685 61.4974 175.143 69.2011 186.721C81.7508 205.58 96.2754 227.408 128 227.408C162.133 227.408 183.467 202.14 192 151.605C179.2 176.873 164.267 186.348 147.2 180.031C137.463 176.427 130.503 165.968 122.799 154.391C110.249 135.532 95.7246 113.704 64 113.704Z" fill="url(#paint0_linear_2217_558)"/>
</g>
<defs>
<linearGradient id="paint0_linear_2217_558" x1="-1820.44" y1="11206.7" x2="64796.9" y2="26813.4" gradientUnits="userSpaceOnUse">
<stop stop-color="#2298BD"/>
<stop offset="1" stop-color="#0ED7B5"/>
</linearGradient>
<clipPath id="clip0_2217_558">
<rect width="256" height="228" fill="white"/>
</clipPath>
</defs>
</svg>
