<svg width="195" height="195" viewBox="0 0 195 195" fill="none" xmlns="http://www.w3.org/2000/svg">
<g clip-path="url(#clip0_2217_540)">
<path d="M0 97.5V195H97.5H195V97.5V0H97.5H0V97.5Z" fill="#007ACC"/>
<path d="M43.1218 98.1468L43.0599 106.133H55.7504H68.4408V142.192V178.252H77.417H86.3932V142.192V106.133H99.0837H111.774V98.3016C111.774 93.9683 111.681 90.3468 111.558 90.254C111.465 90.1302 96.0194 90.0683 77.2932 90.0992L43.2146 90.1921L43.1218 98.1468Z" fill="white"/>
<path d="M157.346 89.9653C162.298 91.2034 166.074 93.401 169.541 96.9915C171.336 98.9105 173.998 102.408 174.215 103.244C174.277 103.491 165.796 109.187 160.658 112.375C160.472 112.499 159.729 111.694 158.893 110.456C156.386 106.803 153.755 105.225 149.731 104.946C143.82 104.544 140.012 107.639 140.043 112.808C140.043 114.325 140.26 115.222 140.879 116.461C142.179 119.153 144.593 120.763 152.177 124.044C166.136 130.049 172.11 134.011 175.824 139.644C179.972 145.927 180.9 155.956 178.084 163.415C174.989 171.525 167.312 177.034 156.51 178.861C153.167 179.449 145.243 179.356 141.653 178.706C133.822 177.313 126.393 173.444 121.812 168.368C120.017 166.387 116.52 161.218 116.736 160.846C116.829 160.722 117.634 160.227 118.531 159.701C119.398 159.206 122.679 157.318 125.774 155.522L131.377 152.272L132.553 154.006C134.193 156.513 137.784 159.949 139.95 161.094C146.172 164.375 154.715 163.911 158.924 160.134C160.72 158.494 161.462 156.791 161.462 154.284C161.462 152.025 161.184 151.034 160.008 149.332C158.491 147.165 155.396 145.339 146.605 141.532C136.546 137.199 132.212 134.506 128.25 130.234C125.96 127.758 123.793 123.796 122.896 120.484C122.153 117.73 121.967 110.827 122.555 108.041C124.629 98.3224 131.965 91.5439 142.55 89.532C145.986 88.882 153.972 89.1296 157.346 89.9653Z" fill="white"/>
</g>
<defs>
<clipPath id="clip0_2217_540">
<rect width="195" height="195" fill="white"/>
</clipPath>
</defs>
</svg>
